<svg xmlns="http://www.w3.org/2000/svg" version="1.1" xmlns:xlink="http://www.w3.org/1999/xlink" xmlns:svgjs="http://svgjs.com/svgjs" width="1440" height="560" preserveAspectRatio="none" viewBox="0 0 1440 560">
    <g mask="url(&quot;#SvgjsMask1000&quot;)" fill="none">
        <rect width="1440" height="560" x="0" y="0" fill="#0e2a47"></rect>
        <path d="M925.46 21.19 a29.87 29.87 0 1 0 59.74 0 a29.87 29.87 0 1 0 -59.74 0z" stroke="#037b0b"></path>
        <path d="M796.87 88.87a9.33 9.33 0 1 0-17.34 6.88z" stroke="#e73635"></path>
        <path d="M92.92 548.05L129.37 548.05L129.37 584.5L92.92 584.5z" fill="#d3b714"></path>
        <path d="M391.76 294.79L400.95 294.79L400.95 303.98L391.76 303.98z" stroke="#e73635"></path>
        <path d="M877.44 181.28L881.42 181.28L881.42 185.26L877.44 185.26z" stroke="#d3b714"></path>
        <path d="M1367.95 10.58L1405.4 10.58L1405.4 23.36L1367.95 23.36z" fill="#d3b714"></path>
        <path d="M314.28 173.31 a18.7 18.7 0 1 0 37.4 0 a18.7 18.7 0 1 0 -37.4 0z" stroke="#037b0b"></path>
        <path d="M811.47 445.77 a44.96 44.96 0 1 0 89.92 0 a44.96 44.96 0 1 0 -89.92 0z" stroke="#037b0b"></path>
        <path d="M172.02 199.87L176.26 199.87L176.26 204.11L172.02 204.11z" stroke="#037b0b"></path>
        <path d="M150.99 389.46 a22.75 22.75 0 1 0 45.5 0 a22.75 22.75 0 1 0 -45.5 0z" fill="#037b0b"></path>
        <path d="M909.92 331.55a2.45 2.45 0 1 0-2.88-3.97z" stroke="#e73635"></path>
        <path d="M1287.11 414.52a6.63 6.63 0 1 0 8.24-10.39z" stroke="#037b0b"></path>
        <path d="M265.25 99.52L315.15 99.52L315.15 149.42L265.25 149.42z" stroke="#e73635"></path>
        <path d="M1134.12 238.1a54.8 54.8 0 1 0 34.59 104z" stroke="#e73635"></path>
        <path d="M304.51 303.55L317.8 303.55L317.8 316.84L304.51 316.84z" fill="#d3b714"></path>
        <path d="M656.46 68.96L662.97 68.96L662.97 75.47L656.46 75.47z" fill="#d3b714"></path>
        <path d="M1236.85 421.16L1289.36 421.16L1289.36 474.04L1236.85 474.04z" fill="#d3b714"></path>
        <path d="M1083.65 542.03L1115.48 542.03L1115.48 573.86L1083.65 573.86z" stroke="#e73635"></path>
        <path d="M562.34 160.59L600.21 160.59L600.21 182.19L562.34 182.19z" fill="#e73635"></path>
        <path d="M453.85 130.47L461.96 130.47L461.96 138.58L453.85 138.58z" fill="#d3b714"></path>
        <path d="M1125.86 360.26L1175.47 360.26L1175.47 399.76L1125.86 399.76z" fill="#d3b714"></path>
        <path d="M605 490.06L626.6 490.06L626.6 511.66L605 511.66z" stroke="#d3b714"></path>
        <path d="M1028.82 144.76L1066.31 144.76L1066.31 182.25L1028.82 182.25z" stroke="#d3b714"></path>
        <path d="M597.16 199.76L609.63 199.76L609.63 210.51L597.16 210.51z" stroke="#037b0b"></path>
        <path d="M437.22 374.84a51.83 51.83 0 1 0-0.26-103.66z" stroke="#d3b714"></path>
        <path d="M430.71 447.99 a46.06 46.06 0 1 0 92.12 0 a46.06 46.06 0 1 0 -92.12 0z" fill="#d3b714"></path>
        <path d="M38.12 87.76L91.51 87.76L91.51 142.94L38.12 142.94z" stroke="#e73635"></path>
        <path d="M238.02 268.11L290.2 268.11L290.2 316.9L238.02 316.9z" stroke="#037b0b"></path>
        <path d="M488.42 329.81a13.74 13.74 0 1 0 19.25 19.61z" stroke="#037b0b"></path>
        <path d="M1206.37 401.25L1209.01 401.25L1209.01 403.89L1206.37 403.89z" stroke="#d3b714"></path>
        <path d="M0.4 272.39L1.87 272.39L1.87 311.38L0.4 311.38z" fill="#d3b714"></path>
        <path d="M755.14 264.71L791.17 264.71L791.17 300.74L755.14 300.74z" fill="#e73635"></path>
        <path d="M552.09 384.16 a25.5 25.5 0 1 0 51 0 a25.5 25.5 0 1 0 -51 0z" fill="#037b0b"></path>
    </g>
    <defs>
        <mask id="SvgjsMask1000">
            <rect width="1440" height="560" fill="#ffffff"></rect>
        </mask>
    </defs>
</svg>